<?xml version="1.0" encoding="UTF-8"?>
<svg version="1.1" xmlns="http://www.w3.org/2000/svg" width="256" height="256">
<path d="M0 0 C0.99 4.455 0.99 4.455 2 9 C2.66 9 3.32 9 4 9 C4 10.98 4 12.96 4 15 C4.66 15 5.32 15 6 15 C7.5078125 16.96875 7.5078125 16.96875 9.125 19.5 C9.66382813 20.3353125 10.20265625 21.170625 10.7578125 22.03125 C11.16773438 22.6809375 11.57765625 23.330625 12 24 C11.67 24.66 11.34 25.32 11 26 C11.66 26 12.32 26 13 26 C13 26.66 13 27.32 13 28 C13.66 28 14.32 28 15 28 C15 28.66 15 29.32 15 30 C15.598125 30.226875 16.19625 30.45375 16.8125 30.6875 C19 32 19 32 20.25 34.125 C22.45763211 37.75182418 25.27825584 40.33068072 28.35546875 43.23046875 C30 45 30 45 30 47 C30.804375 47.3403125 30.804375 47.3403125 31.625 47.6875 C34.82460161 49.45570089 37.29037223 51.53670203 40 54 C40 54.66 40 55.32 40 56 C40.66 56 41.32 56 42 56 C43.3540932 57.98600337 44.68457624 59.98817543 46 62 C46.70125 62.70125 47.4025 63.4025 48.125 64.125 C50.98060111 66.98060111 52 68.95501152 52 73 C52.66 73 53.32 73 54 73 C54 74.32 54 75.64 54 77 C54.66 77 55.32 77 56 77 C56 76.34 56 75.68 56 75 C56 72.66666667 56 70.33333333 56 68 C55.34 68 54.68 68 54 68 C53.46809459 66.56656 52.94984742 65.12804633 52.4375 63.6875 C52.00244141 62.48673828 52.00244141 62.48673828 51.55859375 61.26171875 C51 59 51 59 52 56 C60.95597484 63.54716981 60.95597484 63.54716981 63 66 C63 67.32 63 68.64 63 70 C63.66 70 64.32 70 65 70 C65 70.66 65 71.32 65 72 C65.66 72 66.32 72 67 72 C68.4375 74.1875 68.4375 74.1875 70 77 C70.804375 78.2375 70.804375 78.2375 71.625 79.5 C73.06211283 82.11293242 73.45771954 84.08524254 74 87 C74.50470738 88.33952066 75.02701078 89.67248486 75.5625 91 C76.78292581 94.12808169 77.31852568 96.60239272 77 100 C77.66 100 78.32 100 79 100 C79 103.63 79 107.26 79 111 C79.66 111 80.32 111 81 111 C82.13113218 113.26226435 82.13214691 114.50835348 82.14526367 117.01904297 C82.15164352 117.84685272 82.15802338 118.67466248 82.16459656 119.52755737 C82.16626579 120.87129929 82.16626579 120.87129929 82.16796875 122.2421875 C82.17129715 123.1621048 82.17462555 124.08202209 82.17805481 125.02981567 C82.1831232 126.97836812 82.18546316 128.92692925 82.18530273 130.87548828 C82.18748604 133.85594015 82.20563387 136.83602007 82.22460938 139.81640625 C82.22754394 141.70833207 82.22952832 143.60025964 82.23046875 145.4921875 C82.23765427 146.38396698 82.24483978 147.27574646 82.25224304 148.19454956 C82.24916641 149.02866364 82.24608978 149.86277771 82.24291992 150.72216797 C82.24434494 151.4533786 82.24576996 152.18458923 82.24723816 152.93795776 C81.96147736 155.32129062 81.10223291 156.88246309 80 159 C79.61250787 161.32495277 79.27017161 163.65851268 79 166 C78.34 166 77.68 166 77 166 C77 168.97 77 171.94 77 175 C76.34 175 75.68 175 75 175 C75 176.32 75 177.64 75 179 C74.34 179 73.68 179 73 179 C73 180.32 73 181.64 73 183 C72.34 183 71.68 183 71 183 C70.89816406 183.86882812 70.79632813 184.73765625 70.69140625 185.6328125 C69.95465207 189.22084698 68.75250461 191.70839622 66.9375 194.875 C66.38964844 195.84179688 65.84179688 196.80859375 65.27734375 197.8046875 C64.85582031 198.52914062 64.43429688 199.25359375 64 200 C63.34 200 62.68 200 62 200 C61.938125 200.53625 61.87625 201.0725 61.8125 201.625 C60.59964736 205.17026157 58.55389074 207.2592392 56 210 C55.34 210 54.68 210 54 210 C54 210.66 54 211.32 54 212 C52.28515625 213.65625 52.28515625 213.65625 50.0625 215.5 C47.07954821 217.88926999 47.07954821 217.88926999 45 221 C44.34 221 43.68 221 43 221 C43 221.66 43 222.32 43 223 C42.34 223 41.68 223 41 223 C41 223.66 41 224.32 41 225 C40.34 225 39.68 225 39 225 C38.6596875 225.928125 38.6596875 225.928125 38.3125 226.875 C36.60599474 229.63791327 34.97260714 229.83995819 32 231 C30.97971135 232.31787285 29.98028616 233.65210653 29 235 C24.93595538 237.78677345 20.41674371 239.83114176 16 242 C15.34128906 242.36996094 14.68257812 242.73992187 14.00390625 243.12109375 C12 244 12 244 8 244 C8 244.66 8 245.32 8 246 C6.35 246 4.7 246 3 246 C3 246.66 3 247.32 3 248 C-1.873261 249.5912689 -5.80790596 250.21192221 -11 250 C-11 250.66 -11 251.32 -11 252 C-13.97 252 -16.94 252 -20 252 C-20 252.66 -20 253.32 -20 254 C-25.53588533 254.02464775 -31.071739 254.04283496 -36.60766602 254.05493164 C-38.4924373 254.05997244 -40.37720465 254.06680498 -42.26196289 254.07543945 C-44.96501636 254.08751617 -47.66801831 254.09323068 -50.37109375 254.09765625 C-51.64296791 254.10539818 -51.64296791 254.10539818 -52.9405365 254.11329651 C-54.96071068 254.11349195 -56.98077934 254.06206211 -59 254 C-59.33 253.67 -59.66 253.34 -60 253 C-61.49496842 252.79300437 -62.9966592 252.63320741 -64.5 252.5 C-68.88888889 252.11111111 -68.88888889 252.11111111 -70 251 C-72.32817964 250.63239269 -74.6618385 250.29758419 -77 250 C-77 249.34 -77 248.68 -77 248 C-78.98 248 -80.96 248 -83 248 C-83 247.34 -83 246.68 -83 246 C-84.65 246 -86.3 246 -88 246 C-88 245.34 -88 244.68 -88 244 C-89.32 244 -90.64 244 -92 244 C-92 243.34 -92 242.68 -92 242 C-93.98 242 -95.96 242 -98 242 C-98 241.34 -98 240.68 -98 240 C-98.61488281 239.81824219 -99.22976562 239.63648438 -99.86328125 239.44921875 C-100.67152344 239.19785156 -101.47976562 238.94648438 -102.3125 238.6875 C-103.11300781 238.44386719 -103.91351563 238.20023438 -104.73828125 237.94921875 C-107.12905456 236.9458372 -108.23231866 235.84690515 -110 234 C-110.99 233.67 -111.98 233.34 -113 233 C-113 232.34 -113 231.68 -113 231 C-113.66 231 -114.32 231 -115 231 C-115 230.34 -115 229.68 -115 229 C-115.5775 228.71125 -116.155 228.4225 -116.75 228.125 C-118.83333333 227.08333333 -120.91666667 226.04166667 -123 225 C-123 224.34 -123 223.68 -123 223 C-123.66 223 -124.32 223 -125 223 C-125 222.34 -125 221.68 -125 221 C-125.66 221 -126.32 221 -127 221 C-128.65625 219.28515625 -128.65625 219.28515625 -130.5 217.0625 C-132.88926999 214.07954821 -132.88926999 214.07954821 -136 212 C-136 211.34 -136 210.68 -136 210 C-136.66 210 -137.32 210 -138 210 C-138 208.68 -138 207.36 -138 206 C-138.66 206 -139.32 206 -140 206 C-140 205.34 -140 204.68 -140 204 C-140.66 204 -141.32 204 -142 204 C-142 202.68 -142 201.36 -142 200 C-142.66 200 -143.32 200 -144 200 C-144 199.34 -144 198.68 -144 198 C-144.66 198 -145.32 198 -146 198 C-146.25394531 197.41992188 -146.50789063 196.83984375 -146.76953125 196.2421875 C-148.34568361 192.66485292 -149.92283631 189.14605984 -151.75 185.6875 C-153 183 -153 183 -153 179 C-153.66 179 -154.32 179 -155 179 C-155 178.34 -155 177.68 -155 177 C-155.66 177 -156.32 177 -157 177 C-157 175.02 -157 173.04 -157 171 C-157.66 171 -158.32 171 -159 171 C-159.33 168.03 -159.66 165.06 -160 162 C-160.66 162 -161.32 162 -162 162 C-162.06058594 161.21753906 -162.12117187 160.43507812 -162.18359375 159.62890625 C-162.26738281 158.61699219 -162.35117188 157.60507813 -162.4375 156.5625 C-162.51871094 155.55316406 -162.59992188 154.54382813 -162.68359375 153.50390625 C-162.73211468 151.06359221 -162.73211468 151.06359221 -164 150 C-164.10095564 147.34543807 -164.13970998 144.71744824 -164.1328125 142.0625 C-164.13376923 141.267229 -164.13472595 140.47195801 -164.13571167 139.65258789 C-164.13639343 137.9679354 -164.13453943 136.28328029 -164.13037109 134.59863281 C-164.12502275 132.01100803 -164.13031619 129.42355684 -164.13671875 126.8359375 C-164.13605797 125.20312461 -164.1347768 123.57031184 -164.1328125 121.9375 C-164.13483673 121.15834229 -164.13686096 120.37918457 -164.13894653 119.57641602 C-164.11495105 114.11495105 -164.11495105 114.11495105 -163 113 C-162.79395915 111.67218122 -162.6337041 110.33704105 -162.5 109 C-162.11111111 105.11111111 -162.11111111 105.11111111 -161 104 C-160.7506643 102.39884424 -160.52621352 100.79379841 -160.3125 99.1875 C-159.17242162 92.45308355 -156.28923452 86.92682825 -153 81 C-152.34 81 -151.68 81 -151 81 C-151.33 80.01 -151.66 79.02 -152 78 C-150.515 77.505 -150.515 77.505 -149 77 C-148.43941523 75.26566343 -148.43941523 75.26566343 -148 73 C-146.2517147 68.33790588 -144.60930945 65.38372761 -141 62 C-140.54625 61.236875 -140.0925 60.47375 -139.625 59.6875 C-135.74712699 53.27409464 -130.71187807 48.1933825 -124.25 44.375 C-121.87854191 43.1987496 -121.87854191 43.1987496 -121 41 C-117.125 41.875 -117.125 41.875 -116 43 C-115.85884839 45.67058851 -115.95752893 48.32432238 -116 51 C-115.34 51 -114.68 51 -114 51 C-114 55.95 -114 60.9 -114 66 C-112.35 66.33 -110.7 66.66 -109 67 C-109 66.34 -109 65.68 -109 65 C-107.75 63.375 -107.75 63.375 -106 62 C-104.68 62 -103.36 62 -102 62 C-102 61.34 -102 60.68 -102 60 C-101.34 60 -100.68 60 -100 60 C-100 59.34 -100 58.68 -100 58 C-99.34 58 -98.68 58 -98 58 C-98 57.34 -98 56.68 -98 56 C-96.68 56 -95.36 56 -94 56 C-94 55.34 -94 54.68 -94 54 C-93.34 54 -92.68 54 -92 54 C-92 53.34 -92 52.68 -92 52 C-90.68 52 -89.36 52 -88 52 C-88 51.34 -88 50.68 -88 50 C-87.34 50 -86.68 50 -86 50 C-86 49.34 -86 48.68 -86 48 C-84.68 48 -83.36 48 -82 48 C-80.96957053 51.44698827 -80.80205297 54.70925282 -80.68359375 58.296875 C-80.64169922 59.50214844 -80.59980469 60.70742188 -80.55664062 61.94921875 C-80.51732422 63.20347656 -80.47800781 64.45773438 -80.4375 65.75 C-80.39431641 67.01972656 -80.35113281 68.28945312 -80.30664062 69.59765625 C-80.20060278 72.73166365 -80.09853942 75.86574933 -80 79 C-75.75289734 76.9563739 -75.75289734 76.9563739 -71.875 74.3125 C-70 73 -70 73 -66 73 C-66 72.34 -66 71.68 -66 71 C-64.68 71 -63.36 71 -62 71 C-62 70.34 -62 69.68 -62 69 C-59.36 69 -56.72 69 -54 69 C-54 68.34 -54 67.68 -54 67 C-50.7 67 -47.4 67 -44 67 C-44 62.71 -44 58.42 -44 54 C-43.34 54 -42.68 54 -42 54 C-42.0825 53.01 -42.165 52.02 -42.25 51 C-42.26612456 47.00917168 -40.90688809 44.3586159 -39.01171875 40.9140625 C-37.85241946 38.84723463 -37.85241946 38.84723463 -36.9375 35.8125 C-35.95813317 32.8743995 -34.78489639 30.52860322 -33 28 C-32.34 28 -31.68 28 -31 28 C-31 26.68 -31 25.36 -31 24 C-30.34 24 -29.68 24 -29 24 C-29 23.34 -29 22.68 -29 22 C-28.34 22 -27.68 22 -27 22 C-27 21.34 -27 20.68 -27 20 C-26.34 20 -25.68 20 -25 20 C-25 19.34 -25 18.68 -25 18 C-24.34 18 -23.68 18 -23 18 C-22.90203125 17.41347656 -22.8040625 16.82695312 -22.703125 16.22265625 C-20.92252783 10.59399075 -14.93643064 6.74246147 -10 4 C-9.46375 3.46375 -8.9275 2.9275 -8.375 2.375 C-5.80632227 -0.19367773 -3.54551571 0 0 0 Z M58 79 C59 83 59 83 59 83 Z " fill="#95A466" transform="translate(168,0)"/>
<path d="M0 0 C0.66 2.97 1.32 5.94 2 9 C2.66 9 3.32 9 4 9 C4 10.98 4 12.96 4 15 C4.66 15 5.32 15 6 15 C7.5078125 16.96875 7.5078125 16.96875 9.125 19.5 C9.66382813 20.3353125 10.20265625 21.170625 10.7578125 22.03125 C11.16773438 22.6809375 11.57765625 23.330625 12 24 C11.67 24.66 11.34 25.32 11 26 C11.66 26 12.32 26 13 26 C13 26.66 13 27.32 13 28 C13.66 28 14.32 28 15 28 C15 28.66 15 29.32 15 30 C15.598125 30.226875 16.19625 30.45375 16.8125 30.6875 C19 32 19 32 20.25 34.125 C22.45763211 37.75182418 25.27825584 40.33068072 28.35546875 43.23046875 C30 45 30 45 30 47 C30.53625 47.226875 31.0725 47.45375 31.625 47.6875 C34.82460161 49.45570089 37.29037223 51.53670203 40 54 C40 54.66 40 55.32 40 56 C40.66 56 41.32 56 42 56 C43.3540932 57.98600337 44.68457624 59.98817543 46 62 C46.70125 62.70125 47.4025 63.4025 48.125 64.125 C50.98060111 66.98060111 52 68.95501152 52 73 C52.66 73 53.32 73 54 73 C54 74.32 54 75.64 54 77 C54.66 77 55.32 77 56 77 C56 77.66 56 78.32 56 79 C56.61875 79.04125 57.2375 79.0825 57.875 79.125 C58.57625 79.41375 59.2775 79.7025 60 80 C62.5384566 86.18295501 62.67090232 92.40237515 63 99 C63.05414063 99.83789062 63.10828125 100.67578125 63.1640625 101.5390625 C63.44681987 109.22492195 61.66999045 116.54468547 60 124 C58.515 124.495 58.515 124.495 57 125 C56.94829552 126.16329765 56.94829552 126.16329765 57.59887695 127.83520508 C58.28991446 131.56462051 55.96666595 134.52353483 54.1875 137.6875 C53.81818359 138.37650391 53.44886719 139.06550781 53.06835938 139.77539062 C50.28492087 144.85753956 50.28492087 144.85753956 48 146 C48 145.01 48 144.02 48 143 C47.67128906 143.46148437 47.34257812 143.92296875 47.00390625 144.3984375 C42.71126974 150.28481711 37.93572191 155.6474838 33 161 C32.34 160.67 31.68 160.34 31 160 C31.2165625 159.20078125 31.433125 158.4015625 31.65625 157.578125 C33.60500659 149.89136291 34.38519261 142.91784812 34 135 C33.86722656 136.26714844 33.73445313 137.53429687 33.59765625 138.83984375 C33.41928506 140.53906399 33.24089884 142.23828266 33.0625 143.9375 C32.97548828 144.76830078 32.88847656 145.59910156 32.79882812 146.45507812 C32.62261725 148.13234461 32.44389375 149.80934898 32.26269531 151.48608398 C32.08655561 153.17168856 31.92459605 154.85883119 31.77636719 156.54711914 C31.70192383 157.34625732 31.62748047 158.14539551 31.55078125 158.96875 C31.48930908 159.68353516 31.42783691 160.39832031 31.36450195 161.13476562 C30.6903473 164.58455901 28.71172078 165.88485779 26 168 C25.22269531 168.61617187 24.44539063 169.23234375 23.64453125 169.8671875 C14.00856463 177.23668578 4.16752607 181.84291801 -7.375 185.375 C-8.6597522 185.76969482 -8.6597522 185.76969482 -9.97045898 186.17236328 C-14.43229962 187.4731685 -18.30100702 188.32142949 -23 188 C-20.28111007 184.94124883 -18.07054994 182.89652898 -14.3125 181.25 C-6.90935211 177.80830885 -0.81438815 171.49082688 4 165 C4.77833534 162.81785432 4.77833534 162.81785432 5 161 C5.66 161 6.32 161 7 161 C8.79722177 152.88857304 9.28018414 145.16779115 9.1875 136.875 C9.18685547 135.740625 9.18621094 134.60625 9.18554688 133.4375 C9.64346418 128.36471762 9.64346418 128.36471762 8 124 C7.95919217 122.00041636 7.95745644 119.99954746 8 118 C7.34 118 6.68 118 6 118 C5.61070312 117.0821875 5.22140625 116.164375 4.8203125 115.21875 C0.96958866 106.61062869 -2.99055091 101.32621656 -11 96 C-13.30078125 94.41796875 -13.30078125 94.41796875 -15 93 C-15 92.34 -15 91.68 -15 91 C-11.04 91 -7.08 91 -3 91 C-3 91.66 -3 92.32 -3 93 C-1.7625 92.9071875 -1.7625 92.9071875 -0.5 92.8125 C3.88193696 93.04724662 6.95495082 94.32618654 11 96 C7.97094677 90.8637793 4.14765682 87.04971324 -0.171875 82.953125 C-2 81 -2 81 -2 79 C-3.3921875 78.814375 -3.3921875 78.814375 -4.8125 78.625 C-8 78 -8 78 -11 76 C-11 75.01 -11 74.02 -11 73 C-12.35347689 72.53963371 -13.707827 72.08183463 -15.0625 71.625 C-15.81660156 71.36976562 -16.57070312 71.11453125 -17.34765625 70.8515625 C-18.22292969 70.57054688 -19.09820312 70.28953125 -20 70 C-21.0725 69.649375 -22.145 69.29875 -23.25 68.9375 C-27.5287539 67.86781152 -31.54772941 67.55555612 -35.9375 67.375 C-36.71673828 67.33632812 -37.49597656 67.29765625 -38.29882812 67.2578125 C-40.19887379 67.16455873 -42.09940278 67.08124038 -44 67 C-44 62.71 -44 58.42 -44 54 C-43.34 54 -42.68 54 -42 54 C-42.12375 52.515 -42.12375 52.515 -42.25 51 C-42.26612456 47.00917168 -40.90688809 44.3586159 -39.01171875 40.9140625 C-37.85241946 38.84723463 -37.85241946 38.84723463 -36.9375 35.8125 C-35.95813317 32.8743995 -34.78489639 30.52860322 -33 28 C-32.34 28 -31.68 28 -31 28 C-31 26.68 -31 25.36 -31 24 C-30.34 24 -29.68 24 -29 24 C-29 23.34 -29 22.68 -29 22 C-28.34 22 -27.68 22 -27 22 C-27 21.34 -27 20.68 -27 20 C-26.34 20 -25.68 20 -25 20 C-25 19.34 -25 18.68 -25 18 C-24.34 18 -23.68 18 -23 18 C-22.90203125 17.41347656 -22.8040625 16.82695312 -22.703125 16.22265625 C-20.92252783 10.59399075 -14.93643064 6.74246147 -10 4 C-9.46375 3.46375 -8.9275 2.9275 -8.375 2.375 C-5.80632227 -0.19367773 -3.54551571 0 0 0 Z " fill="#B4C86F" transform="translate(168,0)"/>
<path d="M0 0 C26.18687998 -0.82588413 26.18687998 -0.82588413 36 4 C37.61841797 4.77537109 37.61841797 4.77537109 39.26953125 5.56640625 C41.36035239 6.59569542 43.44016955 7.64789771 45.50390625 8.73046875 C48.02699524 10.09133787 48.02699524 10.09133787 51 11 C52.61328125 12.6015625 52.61328125 12.6015625 54.3125 14.625 C54.91835937 15.34171875 55.52421875 16.0584375 56.1484375 16.796875 C56.75945312 17.52390625 57.37046875 18.2509375 58 19 C58.88558594 19.99773437 58.88558594 19.99773437 59.7890625 21.015625 C60.33304687 21.62921875 60.87703125 22.2428125 61.4375 22.875 C62.17806641 23.70644531 62.17806641 23.70644531 62.93359375 24.5546875 C64 26 64 26 64 28 C59.13103697 27.40380045 54.67209049 26.43023178 50 25 C50 24.34 50 23.68 50 23 C46.04 23 42.08 23 38 23 C40.32381878 25.47874003 42.52097213 27.66419499 45.3125 29.62109375 C53.07485451 35.12337248 56.81383527 41.11173464 60 50 C60.47114747 52.96520333 60.41881189 55.00848653 60 58 C60.66 58 61.32 58 62 58 C62.08837761 61.62484173 62.14084706 65.24940017 62.1875 68.875 C62.21263672 69.88820313 62.23777344 70.90140625 62.26367188 71.9453125 C62.38635168 84.70401264 58.5835331 95.43939456 49.75 104.75 C45.50049172 108.78248232 41.279761 111.52296927 36 114 C35.1646875 114.46535156 34.329375 114.93070312 33.46875 115.41015625 C23.94202658 120.21365865 14.38021459 119.64598356 4 119 C3.2992334 118.95987793 2.5984668 118.91975586 1.87646484 118.87841797 C-6.68625199 118.29988487 -12.37435597 116.39035447 -19 111 C-19.73605469 110.484375 -20.47210938 109.96875 -21.23046875 109.4375 C-31.64605469 101.97986876 -39.73498303 91.76872207 -42 79 C-42.6180084 73.23192157 -41.41560074 68.68359968 -38 64 C-36.515 63.505 -36.515 63.505 -35 63 C-35 62.34 -35 61.68 -35 61 C-33.34467377 59.98133771 -31.67739862 58.98189187 -30 58 C-29.67 57.34 -29.34 56.68 -29 56 C-26.67616498 55.718235 -24.33823176 55.54828316 -22 55.4375 C-17.67859865 55.61583954 -17.67859865 55.61583954 -14 54 C-10.50689674 53.75310527 -7.01457982 53.61564229 -3.515625 53.4765625 C0.81286516 52.88981161 3.4532436 51.60813562 6.4765625 48.46484375 C6.85554688 47.96082031 7.23453125 47.45679688 7.625 46.9375 C10 44 10 44 13 42 C13.72965366 39.43717258 13.72965366 39.43717258 14 37 C13.18144531 36.75765625 12.36289063 36.5153125 11.51953125 36.265625 C7.35439038 34.7678385 3.58132916 32.83935063 -0.3125 30.75 C-1.06289551 30.34958496 -1.81329102 29.94916992 -2.58642578 29.53662109 C-16.72382607 21.90579463 -16.72382607 21.90579463 -21 17 C-21 16.34 -21 15.68 -21 15 C-22.32 14.67 -23.64 14.34 -25 14 C-25 13.34 -25 12.68 -25 12 C-23.68 12 -22.36 12 -21 12 C-20.7525 11.38125 -20.505 10.7625 -20.25 10.125 C-18.76749514 7.60474173 -17.71612936 6.98768341 -15 6 C-14.01 6 -13.02 6 -12 6 C-12 5.34 -12 4.68 -12 4 C-8.0186217 2.6728739 -4.14954773 2.93084087 0 3 C0 2.01 0 1.02 0 0 Z " fill="#284E2B" transform="translate(115,68)"/>
<path d="M0 0 C3 1 3 1 4.6875 3.3125 C6 6 6 6 6 10 C7.4540625 10.61875 7.4540625 10.61875 8.9375 11.25 C12 13 12 13 12.875 15.1875 C12.91625 15.785625 12.9575 16.38375 13 17 C14.32 17.33 15.64 17.66 17 18 C17.495 20.97 17.495 20.97 18 24 C18.66 23.67 19.32 23.34 20 23 C20.495 24.485 20.495 24.485 21 26 C21.33 26.33 21.66 26.66 22 27 C26.76987046 37.68450983 25.57042562 50.15713254 24.26953125 61.5703125 C24.08809596 63.20585964 23.96144068 64.84830495 23.88671875 66.4921875 C23.66777269 70.30810456 23.41957791 72.42657686 21.125 75.5625 C20.09375 76.366875 19.0625 77.17125 18 78 C17.22269531 78.61617188 16.44539063 79.23234375 15.64453125 79.8671875 C6.00856463 87.23668578 -3.83247393 91.84291801 -15.375 95.375 C-16.23150146 95.63812988 -17.08800293 95.90125977 -17.97045898 96.17236328 C-22.43229962 97.4731685 -26.30100702 98.32142949 -31 98 C-28.28111007 94.94124883 -26.07054994 92.89652898 -22.3125 91.25 C-14.90935211 87.80830885 -8.81438815 81.49082688 -4 75 C-3.22166466 72.81785432 -3.22166466 72.81785432 -3 71 C-2.34 71 -1.68 71 -1 71 C0.79722177 62.88857304 1.28018414 55.16779115 1.1875 46.875 C1.18685547 45.740625 1.18621094 44.60625 1.18554688 43.4375 C1.64346418 38.36471762 1.64346418 38.36471762 0 34 C-0.04080783 32.00041636 -0.04254356 29.99954746 0 28 C-0.66 28 -1.32 28 -2 28 C-2.58394531 26.62328125 -2.58394531 26.62328125 -3.1796875 25.21875 C-7.03041134 16.61062869 -10.99055091 11.32621656 -19 6 C-21.30078125 4.41796875 -21.30078125 4.41796875 -23 3 C-23 2.34 -23 1.68 -23 1 C-19.04 1 -15.08 1 -11 1 C-11 1.66 -11 2.32 -11 3 C-9.7625 2.9071875 -9.7625 2.9071875 -8.5 2.8125 C-4.11806304 3.04724662 -1.04504918 4.32618654 3 6 C2.01 4.02 1.02 2.04 0 0 Z " fill="#A8BB6A" transform="translate(176,90)"/>
<path d="M0 0 C13.58029587 5.28790282 28.55613036 5.13565954 42.84375 2.6875 C42.37070318 6.94492137 39.9573678 8.94455098 36.84375 11.6875 C35.35875 12.1825 35.35875 12.1825 33.84375 12.6875 C33.84375 13.3475 33.84375 14.0075 33.84375 14.6875 C30.79693939 16.71870707 30.24256676 16.93409875 26.83203125 16.8828125 C26.07470703 16.87636719 25.31738281 16.86992188 24.53710938 16.86328125 C23.75142578 16.84652344 22.96574219 16.82976562 22.15625 16.8125 C21.35896484 16.80347656 20.56167969 16.79445313 19.74023438 16.78515625 C17.774611 16.76161585 15.80914225 16.72574547 13.84375 16.6875 C13.84375 17.3475 13.84375 18.0075 13.84375 18.6875 C10.21375 19.0175 6.58375 19.3475 2.84375 19.6875 C2.34875 21.1725 2.34875 21.1725 1.84375 22.6875 C-0.71875 23.875 -0.71875 23.875 -3.15625 24.6875 C-3.15625 25.3475 -3.15625 26.0075 -3.15625 26.6875 C-5.03125 28.8125 -5.03125 28.8125 -7.15625 30.6875 C-7.81625 30.6875 -8.47625 30.6875 -9.15625 30.6875 C-9.15625 31.6775 -9.15625 32.6675 -9.15625 33.6875 C-9.81625 33.6875 -10.47625 33.6875 -11.15625 33.6875 C-11.48625 36.6575 -11.81625 39.6275 -12.15625 42.6875 C-13.80625 42.3575 -15.45625 42.0275 -17.15625 41.6875 C-19.23590362 34.92862575 -19.36758202 28.73190079 -19.15625 21.6875 C-20.49236328 21.73390625 -20.49236328 21.73390625 -21.85546875 21.78125 C-30.2132732 21.54386857 -36.35891807 17.16211856 -42.44140625 11.78515625 C-44.39476203 9.39574382 -44.81334565 7.72088461 -45.15625 4.6875 C-45.81625 4.6875 -46.47625 4.6875 -47.15625 4.6875 C-46.9921875 2.82421875 -46.9921875 2.82421875 -46.15625 0.6875 C-43.7578125 -0.54296875 -43.7578125 -0.54296875 -40.78125 -1.5 C-39.80414063 -1.82355469 -38.82703125 -2.14710937 -37.8203125 -2.48046875 C-36.94117188 -2.75503906 -36.06203125 -3.02960938 -35.15625 -3.3125 C-24.10551852 -6.99607716 -10.43137429 -4.33779921 0 0 Z " fill="#CADD85" transform="translate(83.15625,104.3125)"/>
<path d="M0 0 C0.99 0.495 0.99 0.495 2 1 C2.6328125 3.50390625 2.6328125 3.50390625 3.125 6.5625 C3.29257813 7.57441406 3.46015625 8.58632812 3.6328125 9.62890625 C3.75398437 10.41136719 3.87515625 11.19382813 4 12 C4.66 12 5.32 12 6 12 C6.32613281 12.86882812 6.65226563 13.73765625 6.98828125 14.6328125 C7.64376953 16.36144531 7.64376953 16.36144531 8.3125 18.125 C8.74175781 19.26195312 9.17101563 20.39890625 9.61328125 21.5703125 C19.0211521 44.83822971 38.76707605 65.52189924 61 77 C61.59474121 77.3088916 62.18948242 77.6177832 62.80224609 77.93603516 C73.18702531 83.26215077 83.65306658 87.25704845 95 90 C95.71430176 90.18546387 96.42860352 90.37092773 97.16455078 90.56201172 C105.03701901 92.40401483 112.95956607 92.39334268 121 92.375 C122.09350769 92.37617828 122.09350769 92.37617828 123.20910645 92.37738037 C135.49944961 92.3615101 147.26780116 91.5370932 158.77734375 86.875 C161.31799095 85.87481551 163.29362747 85.84535014 166 86 C166 85.34 166 84.68 166 84 C169.465 83.505 169.465 83.505 173 83 C171.52075789 85.95848421 169.15454742 86.16236562 166.18359375 87.2109375 C164.23722232 87.91427745 162.33277206 88.73124032 160.4375 89.5625 C155.56626162 91.59956332 150.86297403 92.95560461 145.625 93.5625 C142.1963063 93.59793141 142.1963063 93.59793141 141 95 C138.37528538 95.13876745 135.778993 95.21327269 133.15234375 95.23828125 C132.34825577 95.246353 131.54416779 95.25442474 130.7157135 95.26274109 C128.99986948 95.27661751 127.28399744 95.28732363 125.56811523 95.29516602 C123.84114294 95.3065456 122.11420172 95.32676683 120.38745117 95.35668945 C102.85690094 95.66043241 88.02767815 92.18482124 72 85 C71.36094727 84.71672852 70.72189453 84.43345703 70.06347656 84.14160156 C45.40016882 73.03145049 25.17294866 55.7222395 12 32 C11.12988281 30.63101563 11.12988281 30.63101563 10.2421875 29.234375 C9 27 9 27 9 24 C8.34 24 7.68 24 7 24 C6.01 21.03 5.02 18.06 4 15 C3.34 15 2.68 15 2 15 C2 13.35 2 11.7 2 10 C1.34 10 0.68 10 0 10 C0 6.7 0 3.4 0 0 Z " fill="#727A5B" transform="translate(6,140)"/>
<path d="M0 0 C0 8.91 0 17.82 0 27 C-6 25 -6 25 -8.8828125 23.9140625 C-12.54567553 22.83998988 -16.08670426 22.5511998 -19.875 22.375 C-20.56335938 22.33632812 -21.25171875 22.29765625 -21.9609375 22.2578125 C-23.64023246 22.16451834 -25.32007767 22.08121762 -27 22 C-26.17162955 17.72160318 -24.26723559 15.88732448 -21 13 C-19.68163705 12.30419733 -18.35208914 11.62775567 -17 11 C-16.67 10.34 -16.34 9.68 -16 9 C-15.34 9 -14.68 9 -14 9 C-14 8.34 -14 7.68 -14 7 C-12.68 7 -11.36 7 -10 7 C-10 6.34 -10 5.68 -10 5 C-8.35 4.67 -6.7 4.34 -5 4 C-4.67 3.01 -4.34 2.02 -4 1 C-2 0 -2 0 0 0 Z " fill="#92A55A" transform="translate(85,50)"/>
<path d="M0 0 C3.875 0.875 3.875 0.875 5 2 C5.14115161 4.67058851 5.04247107 7.32432238 5 10 C5.66 10 6.32 10 7 10 C7 14.95 7 19.9 7 25 C8.65 25.33 10.3 25.66 12 26 C12 25.34 12 24.68 12 24 C13.25 22.375 13.25 22.375 15 21 C16.32 21 17.64 21 19 21 C19 20.34 19 19.68 19 19 C19.66 19 20.32 19 21 19 C21 18.34 21 17.68 21 17 C21.66 17 22.32 17 23 17 C23 16.34 23 15.68 23 15 C24.32 15 25.64 15 27 15 C27 14.34 27 13.68 27 13 C27.66 13 28.32 13 29 13 C29 12.34 29 11.68 29 11 C30.32 11 31.64 11 33 11 C33 11.66 33 12.32 33 13 C31.35 13.33 29.7 13.66 28 14 C28 14.66 28 15.32 28 16 C26.68 16 25.36 16 24 16 C24 16.66 24 17.32 24 18 C23.34 18 22.68 18 22 18 C21.773125 18.598125 21.54625 19.19625 21.3125 19.8125 C19.64482559 22.59195736 17.79312884 23.40392638 15 25 C14.319375 25.721875 13.63875 26.44375 12.9375 27.1875 C11 29 11 29 7 29 C7 28.01 7 27.02 7 26 C6.34 26 5.68 26 5 26 C4.93941406 25.09378906 4.87882812 24.18757813 4.81640625 23.25390625 C4.35047577 16.47999388 3.81358547 9.74113678 3 3 C-5.83163846 8.73411182 -13.57688661 14.8678908 -19 24 C-19.48460693 24.46277344 -19.96921387 24.92554687 -20.46850586 25.40234375 C-22.16724781 27.17447308 -22.96076563 28.73227425 -23.9375 30.9765625 C-24.27523438 31.729375 -24.61296875 32.4821875 -24.9609375 33.2578125 C-25.65652224 34.84249053 -26.34920913 36.42844356 -27.0390625 38.015625 C-27.37679688 38.76585937 -27.71453125 39.51609375 -28.0625 40.2890625 C-28.36285156 40.97693848 -28.66320313 41.66481445 -28.97265625 42.37353516 C-30 44 -30 44 -33 45 C-33.103125 46.051875 -33.20625 47.10375 -33.3125 48.1875 C-34 52 -34 52 -35.46875 54.21875 C-37.48469196 57.88035887 -37.78684336 61.19933687 -38.1875 65.3125 C-38.26935547 66.05306641 -38.35121094 66.79363281 -38.43554688 67.55664062 C-38.63442588 69.36994923 -38.81869827 71.18484969 -39 73 C-39.99 72.67 -40.98 72.34 -42 72 C-41.125 64.125 -41.125 64.125 -40 63 C-39.7506643 61.39884424 -39.52621352 59.79379841 -39.3125 58.1875 C-38.17242162 51.45308355 -35.28923452 45.92682825 -32 40 C-31.34 40 -30.68 40 -30 40 C-30.495 38.515 -30.495 38.515 -31 37 C-29.515 36.505 -29.515 36.505 -28 36 C-27.43941523 34.26566343 -27.43941523 34.26566343 -27 32 C-25.2517147 27.33790588 -23.60930945 24.38372761 -20 21 C-19.54625 20.236875 -19.0925 19.47375 -18.625 18.6875 C-14.74712699 12.27409464 -9.71187807 7.1933825 -3.25 3.375 C-0.87854191 2.1987496 -0.87854191 2.1987496 0 0 Z " fill="#BBCC86" transform="translate(47,41)"/>
<path d="M0 0 C0.33 0 0.66 0 1 0 C1 1.65 1 3.3 1 5 C1.66 5 2.32 5 3 5 C3 8.63 3 12.26 3 16 C3.66 16 4.32 16 5 16 C6.13113218 18.26226435 6.13214691 19.50835348 6.14526367 22.01904297 C6.15164352 22.84685272 6.15802338 23.67466248 6.16459656 24.52755737 C6.16570938 25.42338531 6.1668222 26.31921326 6.16796875 27.2421875 C6.17129715 28.1621048 6.17462555 29.08202209 6.17805481 30.02981567 C6.1831232 31.97836812 6.18546316 33.92692925 6.18530273 35.87548828 C6.18748604 38.85594015 6.20563387 41.83602007 6.22460938 44.81640625 C6.22754394 46.70833207 6.22952832 48.60025964 6.23046875 50.4921875 C6.23765427 51.38396698 6.24483978 52.27574646 6.25224304 53.19454956 C6.24916641 54.02866364 6.24608978 54.86277771 6.24291992 55.72216797 C6.24434494 56.4533786 6.24576996 57.18458923 6.24723816 57.93795776 C5.96147736 60.32129062 5.10223291 61.88246309 4 64 C3.61250787 66.32495277 3.27017161 68.65851268 3 71 C2.34 71 1.68 71 1 71 C1 73.97 1 76.94 1 80 C0.34 80 -0.32 80 -1 80 C-1 81.32 -1 82.64 -1 84 C-1.66 84 -2.32 84 -3 84 C-3 85.32 -3 86.64 -3 88 C-3.66 88 -4.32 88 -5 88 C-5.0825 88.825 -5.165 89.65 -5.25 90.5 C-6.16447269 94.76753921 -7.92223178 98.19236894 -10 102 C-11.53271273 97.41201223 -10.02911182 95.22055258 -8 91 C-7.34 91 -6.68 91 -6 91 C-6 89.68 -6 88.36 -6 87 C-5.34 87 -4.68 87 -4 87 C-3.67 84.36 -3.34 81.72 -3 79 C-2.34 79 -1.68 79 -1 79 C-1.01160156 78.36191406 -1.02320313 77.72382813 -1.03515625 77.06640625 C-1.04417969 76.24011719 -1.05320313 75.41382813 -1.0625 74.5625 C-1.07410156 73.73878906 -1.08570313 72.91507812 -1.09765625 72.06640625 C-1 70 -1 70 0 69 C0.36760731 66.67182036 0.70241581 64.3381615 1 62 C1.66 62 2.32 62 3 62 C3.02527124 55.75204325 3.04283344 49.50409959 3.05493164 43.25610352 C3.05997298 41.12881986 3.06680591 39.00153969 3.07543945 36.87426758 C3.08751379 33.82372174 3.09323014 30.77322155 3.09765625 27.72265625 C3.10539818 26.28672874 3.10539818 26.28672874 3.11329651 24.8217926 C3.11337204 23.94095505 3.11344757 23.06011749 3.11352539 22.15258789 C3.11685631 20.9834359 3.11685631 20.9834359 3.12025452 19.79066467 C3.19571386 17.97633465 3.19571386 17.97633465 2 17 C1.92773498 15.14712498 1.9161878 13.29166122 1.9375 11.4375 C1.94652344 10.42558594 1.95554688 9.41367188 1.96484375 8.37109375 C1.97644531 7.58863281 1.98804688 6.80617188 2 6 C1.34 6 0.68 6 0 6 C0 4.02 0 2.04 0 0 Z " fill="#C1D190" transform="translate(244,95)"/>
<path d="M0 0 C0.33 0 0.66 0 1 0 C3.35022639 6.47473435 3.26376079 12.60212456 3.1875 19.4375 C3.1865332 21.0781543 3.1865332 21.0781543 3.18554688 22.75195312 C3.10103851 38.34844224 3.10103851 38.34844224 0 43 C-0.66 43 -1.32 43 -2 43 C-2.10183594 43.74507812 -2.20367187 44.49015625 -2.30859375 45.2578125 C-4.11376642 52.4173109 -12.20333691 58.76357956 -18 63 C-20.59181582 64.43862905 -23.19931262 65.73281517 -25.8984375 66.95703125 C-28.14576841 67.93306713 -28.14576841 67.93306713 -30 70 C-40.62914077 72.37197668 -53.62520821 72.21976297 -64 69 C-64.33 68.34 -64.66 67.68 -65 67 C-63.07027344 67.23396484 -63.07027344 67.23396484 -61.1015625 67.47265625 C-44.3116635 69.31304963 -29.99407613 68.98405761 -15.9375 58.5 C-14.60807644 57.35265509 -13.29369956 56.18748002 -12 55 C-11.43925781 54.54109375 -10.87851563 54.0821875 -10.30078125 53.609375 C-3.43545598 47.59140726 0.42382893 37.25066835 1.25 28.2878418 C1.41801869 25.21274968 1.53328191 22.14078826 1.625 19.0625 C1.66367188 17.99708984 1.70234375 16.93167969 1.7421875 15.83398438 C1.83586146 13.22282266 1.92158335 10.61165696 2 8 C1.34 8 0.68 8 0 8 C0 5.36 0 2.72 0 0 Z " fill="#667A46" transform="translate(175,118)"/>
<path d="M0 0 C3.44165321 0.35299007 5.06872538 1.04581692 8 3 C8 3.66 8 4.32 8 5 C9.19496094 5.02126953 9.19496094 5.02126953 10.4140625 5.04296875 C20.1502913 5.48121749 20.1502913 5.48121749 23.75 8.4375 C26 11 26 11 26 13 C26.66 13 27.32 13 28 13 C29.3540932 14.98600337 30.68457624 16.98817543 32 19 C33.051875 20.051875 33.051875 20.051875 34.125 21.125 C36.98060111 23.98060111 38 25.95501152 38 30 C38.66 30 39.32 30 40 30 C40 31.32 40 32.64 40 34 C40.66 34 41.32 34 42 34 C41.505 34.99 41.505 34.99 41 36 C40.01 35.505 40.01 35.505 39 35 C39 33.68 39 32.36 39 31 C38.34 31 37.68 31 37 31 C36.78085938 30.48050781 36.56171875 29.96101563 36.3359375 29.42578125 C34.65078488 25.71981553 33.18791313 22.84149974 29.9375 20.3125 C27.01380209 18.01086548 25.77041335 16.20360512 24 13 C21.37974389 9.52415006 18.16650348 9.03353708 14.0625 8 C9.627641 6.88079268 6.53960547 5.89081468 3 3 C2.34 3 1.68 3 1 3 C0.8058796 8.53243128 1.38659023 12.65558013 3 18 C3.125 20.9375 3.125 20.9375 3 23 C1.234375 23.70703125 1.234375 23.70703125 -1 24 C-2.921875 22.63671875 -2.921875 22.63671875 -4.75 20.6875 C-5.36359375 20.05199219 -5.9771875 19.41648437 -6.609375 18.76171875 C-8 17 -8 17 -8 15 C-8.66 15 -9.32 15 -10 15 C-10 14.01 -10 13.02 -10 12 C-9.34 12 -8.68 12 -8 12 C-6 15 -6 15 -4 18 C-1.89424357 19.83300909 -1.89424357 19.83300909 0 21 C-0.144375 19.906875 -0.28875 18.81375 -0.4375 17.6875 C-0.62753431 16.1253062 -0.81471132 14.56276377 -1 13 C-1.11859375 12.03964844 -1.2371875 11.07929687 -1.359375 10.08984375 C-1.52179688 8.62224609 -1.52179688 8.62224609 -1.6875 7.125 C-1.79449219 6.19945312 -1.90148437 5.27390625 -2.01171875 4.3203125 C-2 2 -2 2 0 0 Z " fill="#C8DB80" transform="translate(182,43)"/>
<path d="M0 0 C0.66 0.33 1.32 0.66 2 1 C1.67 1.515625 1.34 2.03125 1 2.5625 C-1.728384 9.212936 0.78727906 15.43640668 2.734375 22.01171875 C4.06999754 25.16527198 5.54873802 26.67431496 8 29 C8.75 32.25 8.75 32.25 9 35 C5.51762536 33.83920845 4.98418684 32.93131619 2.9375 30 C0.92046147 26.98371816 0.92046147 26.98371816 -2 25 C-2.8515625 23.07421875 -2.8515625 23.07421875 -3.625 20.6875 C-3.88539062 19.90761719 -4.14578125 19.12773437 -4.4140625 18.32421875 C-5 16 -5 16 -5 12 C-4.34 12 -3.68 12 -3 12 C-3.020625 10.88625 -3.04125 9.7725 -3.0625 8.625 C-3 5 -3 5 -2 3 C-1.34 3 -0.68 3 0 3 C0 2.01 0 1.02 0 0 Z " fill="#AEC077" transform="translate(74,135)"/>
<path d="M0 0 C0 0.99 0 1.98 0 3 C-1.64556566 4.03435556 -3.3170608 5.02763513 -5 6 C-8.40969862 9.08496542 -10.68016402 12.06636508 -13 16 C-13.639375 16.598125 -14.27875 17.19625 -14.9375 17.8125 C-17.36632954 20.38853133 -18.60998655 22.99707798 -20.0703125 26.1953125 C-21 28 -21 28 -23 30 C-23.64767793 32.57061311 -23.64767793 32.57061311 -24 35 C-24.66 35 -25.32 35 -26 35 C-26.12375 35.5775 -26.2475 36.155 -26.375 36.75 C-27 39 -27 39 -28 40.8125 C-29.36691428 43.80262498 -29.62537436 46.75324449 -30 50 C-30.66 50 -31.32 50 -32 50 C-32 53.96 -32 57.92 -32 62 C-32.33 62 -32.66 62 -33 62 C-33 57.71 -33 53.42 -33 49 C-32.34 49 -31.68 49 -31 49 C-31.12375 47.515 -31.12375 47.515 -31.25 46 C-31.26612456 42.00917168 -29.90688809 39.3586159 -28.01171875 35.9140625 C-26.85241946 33.84723463 -26.85241946 33.84723463 -25.9375 30.8125 C-24.95813317 27.8743995 -23.78489639 25.52860322 -22 23 C-21.34 23 -20.68 23 -20 23 C-20 21.68 -20 20.36 -20 19 C-19.34 19 -18.68 19 -18 19 C-18 18.34 -18 17.68 -18 17 C-17.34 17 -16.68 17 -16 17 C-16 16.34 -16 15.68 -16 15 C-15.34 15 -14.68 15 -14 15 C-14 14.34 -14 13.68 -14 13 C-13.34 13 -12.68 13 -12 13 C-11.90332031 12.41476563 -11.80664062 11.82953125 -11.70703125 11.2265625 C-10.85366461 8.53916481 -9.69967324 7.33115985 -7.6875 5.375 C-7.09324219 4.78460937 -6.49898437 4.19421875 -5.88671875 3.5859375 C-4.00862822 2.00725271 -2.23304103 0.99574898 0 0 Z " fill="#C8D791" transform="translate(157,5)"/>
<path d="M0 0 C-6.39099847 3.57726242 -12.47005379 5.85331115 -19.62890625 7.421875 C-21.94137148 7.76821144 -21.94137148 7.76821144 -23 9 C-31.16096021 10.26773154 -39.45398235 10.12259867 -47.6875 10.0625 C-48.87794922 10.05798828 -50.06839844 10.05347656 -51.29492188 10.04882812 C-54.19666936 10.03717452 -57.09830626 10.02081559 -60 10 C-60 9.67 -60 9.34 -60 9 C-59.33693848 8.9906543 -58.67387695 8.98130859 -57.99072266 8.97167969 C-42.10005765 8.69169215 -26.89784311 7.97507076 -12 2 C-9.1875 1.875 -9.1875 1.875 -7 2 C-7 1.34 -7 0.68 -7 0 C-3.98968256 -0.93423645 -3.13349732 -1.04449911 0 0 Z " fill="#7D895D" transform="translate(179,224)"/>
<path d="M0 0 C1.37562854 1.28965176 2.70766393 2.62689293 4 4 C4 4.66 4 5.32 4 6 C4.99 6.33 5.98 6.66 7 7 C7.33 7.66 7.66 8.32 8 9 C10.30965848 10.05352843 12.6429774 11.05719096 15 12 C15 12.66 15 13.32 15 14 C16.5778125 13.9690625 16.5778125 13.9690625 18.1875 13.9375 C21.3455115 13.98927068 23.94432655 14.32975729 27 15 C27.33923576 17.35344806 27.67150534 19.7075484 28 22.0625 C28.09539062 22.71927734 28.19078125 23.37605469 28.2890625 24.05273438 C28.88887674 28.40138763 29.09127093 32.61329071 29 37 C28.67 37 28.34 37 28 37 C25.92034638 30.24112575 25.78866798 24.04440079 26 17 C24.66388672 17.04640625 24.66388672 17.04640625 23.30078125 17.09375 C14.9429768 16.85636857 8.79733193 12.47461856 2.71484375 7.09765625 C0.76148797 4.70824382 0.34290435 3.03338461 0 0 Z " fill="#B0C275" transform="translate(38,109)"/>
<path d="M0 0 C3.66746552 5.50119828 2.48098808 12.3809782 1.32421875 18.6796875 C0.60303555 21.80367539 -0.16151922 24.90560663 -1 28 C1.64 26.02 4.28 24.04 7 22 C5.02953918 25.94092164 3.27715536 28.12249773 0 31 C-0.99 31 -1.98 31 -3 31 C-2.78537109 29.13021484 -2.78537109 29.13021484 -2.56640625 27.22265625 C-1.94549307 21.63443762 -1.43784013 16.03760328 -0.9375 10.4375 C-0.84662109 9.42880859 -0.75574219 8.42011719 -0.66210938 7.38085938 C-0.44057362 4.9206465 -0.21988654 2.46036073 0 0 Z " fill="#8EA05A" transform="translate(201,132)"/>
<path d="M0 0 C1.32 0 2.64 0 4 0 C4.96066969 3.27094417 5.17829567 6.31687593 5.28125 9.71875 C5.31863281 10.81574219 5.35601562 11.91273437 5.39453125 13.04296875 C5.46484375 15.34765625 5.53515625 17.65234375 5.60546875 19.95703125 C5.64285156 21.05402344 5.68023437 22.15101562 5.71875 23.28125 C5.74904297 24.28220703 5.77933594 25.28316406 5.81054688 26.31445312 C5.97738418 28.67941498 6.33406621 30.7325898 7 33 C6.01 32.67 5.02 32.34 4 32 C2.59087904 29.18175808 2.88816447 26.82748718 2.90234375 23.6796875 C2.90556641 22.42285156 2.90878906 21.16601562 2.91210938 19.87109375 C2.92048828 18.55238281 2.92886719 17.23367187 2.9375 15.875 C2.94251511 14.53515789 2.94707799 13.195314 2.95117188 11.85546875 C2.96298914 8.57026794 2.97946383 5.28515603 3 2 C1.35 2.66 -0.3 3.32 -2 4 C-2 3.34 -2 2.68 -2 2 C-1.34 2 -0.68 2 0 2 C0 1.34 0 0.68 0 0 Z " fill="#C2CF9C" transform="translate(82,48)"/>
<path d="M0 0 C1 3 1 3 -0.3125 5.6875 C-0.869375 6.450625 -1.42625 7.21375 -2 8 C-2.66 8 -3.32 8 -4 8 C-4.1546875 9.5778125 -4.1546875 9.5778125 -4.3125 11.1875 C-5 15 -5 15 -6.46875 17.21875 C-8.48469196 20.88035887 -8.78684336 24.19933687 -9.1875 28.3125 C-9.3102832 29.42334961 -9.3102832 29.42334961 -9.43554688 30.55664062 C-9.63442588 32.36994923 -9.81869827 34.18484969 -10 36 C-10.99 35.67 -11.98 35.34 -13 35 C-12.125 27.125 -12.125 27.125 -11 26 C-10.7506643 24.39884424 -10.52621352 22.79379841 -10.3125 21.1875 C-9.17242162 14.45308355 -6.28923452 8.92682825 -3 3 C-2.34 3 -1.68 3 -1 3 C-0.67 2.01 -0.34 1.02 0 0 Z " fill="#B9C593" transform="translate(18,78)"/>
<path d="M0 0 C32.63256677 -0.91162215 32.63256677 -0.91162215 43 6 C43 6.66 43 7.32 43 8 C41.49890232 7.5662812 39.99918823 7.12777365 38.5 6.6875 C37.6646875 6.44386719 36.829375 6.20023437 35.96875 5.94921875 C33 5 33 5 29.4375 3.4375 C23.9402756 1.34873676 18.31713304 1.43427013 12.5 1.3125 C10.83710937 1.26125977 10.83710937 1.26125977 9.140625 1.20898438 C6.42718457 1.12711333 3.71404253 1.05776596 1 1 C1 1.99 1 2.98 1 4 C-1.64 4 -4.28 4 -7 4 C-7 3.67 -7 3.34 -7 3 C-4.69 3 -2.38 3 0 3 C0 2.01 0 1.02 0 0 Z " fill="#849E62" transform="translate(114,67)"/>
<path d="M0 0 C0.99 0.33 1.98 0.66 3 1 C3 2.65 3 4.3 3 6 C2.071875 6.37125 2.071875 6.37125 1.125 6.75 C-1.35068687 8.20628639 -1.95125002 9.37812506 -3 12 C-3.66 12 -4.32 12 -5 12 C-5.33 12.99 -5.66 13.98 -6 15 C-9.96263771 18.09672799 -13.30650502 18.42850125 -18.25 18.625 C-22.44378196 18.42515296 -22.44378196 18.42515296 -26 20 C-28.67058851 20.14115161 -31.32432238 20.04247107 -34 20 C-34 19.67 -34 19.34 -34 19 C-32.35 19 -30.7 19 -29 19 C-29 18.34 -29 17.68 -29 17 C-27.80761719 16.93941406 -26.61523438 16.87882812 -25.38671875 16.81640625 C-23.82030075 16.73198851 -22.25389512 16.64734113 -20.6875 16.5625 C-19.90181641 16.52318359 -19.11613281 16.48386719 -18.30664062 16.44335938 C-17.54931641 16.40146484 -16.79199219 16.35957031 -16.01171875 16.31640625 C-14.96697388 16.26141968 -14.96697388 16.26141968 -13.90112305 16.20532227 C-11.7783428 16.04418847 -11.7783428 16.04418847 -9 15 C-9 14.34 -9 13.68 -9 13 C-7.01399663 11.6459068 -5.01182457 10.31542376 -3 9 C-0.29743115 6.58960075 0.84616525 5.46150426 2 2 C1.34 2 0.68 2 0 2 C0 1.34 0 0.68 0 0 Z " fill="#678C55" transform="translate(126,104)"/>
<path d="M0 0 C-3.27848165 1.09282722 -4.03719515 0.89848493 -7.25 0.0625 C-16.67361942 -1.95783544 -26.33651566 -2.51223143 -35 2 C-37.32189536 2.4054103 -39.65515344 2.76072994 -42 3 C-42 3.99 -42 4.98 -42 6 C-42.66 6 -43.32 6 -44 6 C-43.8359375 4.13671875 -43.8359375 4.13671875 -43 2 C-40.6015625 0.76953125 -40.6015625 0.76953125 -37.625 -0.1875 C-36.64789063 -0.51105469 -35.67078125 -0.83460937 -34.6640625 -1.16796875 C-33.78492188 -1.44253906 -32.90578125 -1.71710938 -32 -2 C-22.28621392 -5.23792869 -9.39973593 -3.47831638 0 0 Z " fill="#BDD177" transform="translate(80,103)"/>
<path d="M0 0 C3.36016893 1.12005631 4.69064913 2.37211797 7 5 C7 5.66 7 6.32 7 7 C7.66 7 8.32 7 9 7 C10.3540932 8.98600337 11.68457624 10.98817543 13 13 C13.70125 13.70125 14.4025 14.4025 15.125 15.125 C17.98060111 17.98060111 19 19.95501152 19 24 C19.66 24 20.32 24 21 24 C21 25.32 21 26.64 21 28 C21.66 28 22.32 28 23 28 C22.67 28.66 22.34 29.32 22 30 C21.34 29.67 20.68 29.34 20 29 C20 27.68 20 26.36 20 25 C19.34 25 18.68 25 18 25 C17.78085938 24.48050781 17.56171875 23.96101563 17.3359375 23.42578125 C15.65078488 19.71981553 14.18791313 16.84149974 10.9375 14.3125 C8.01380209 12.01086548 6.77041335 10.20360512 5 7 C2.93532144 4.59120835 2.11005341 4.03668447 -1 3 C-0.67 2.01 -0.34 1.02 0 0 Z " fill="#C6D78B" transform="translate(201,49)"/>
<path d="M0 0 C4.8 3.44615385 4.8 3.44615385 5.8125 6.25 C5.874375 6.8275 5.93625 7.405 6 8 C1.13103697 7.40380045 -3.32790951 6.43023178 -8 5 C-8 4.34 -8 3.68 -8 3 C-11.96 3 -15.92 3 -20 3 C-19.34 4.32 -18.68 5.64 -18 7 C-18.99 6.67 -19.98 6.34 -21 6 C-21 4.68 -21 3.36 -21 2 C-18.62468606 1.9456035 -16.25064117 1.90614136 -13.875 1.875 C-13.20984375 1.85824219 -12.5446875 1.84148437 -11.859375 1.82421875 C-7.50483944 1.78152722 -4.04399886 2.40003783 0 4 C0 4.66 0 5.32 0 6 C0.99 5.67 1.98 5.34 3 5 C2.505 4.54625 2.01 4.0925 1.5 3.625 C0 2 0 2 0 0 Z " fill="#537541" transform="translate(173,88)"/>
<path d="M0 0 C1.32 0.33 2.64 0.66 4 1 C4.33 2.65 4.66 4.3 5 6 C4.67 5.01 4.34 4.02 4 3 C3.25234375 3.42152344 2.5046875 3.84304687 1.734375 4.27734375 C0.74953125 4.82519531 -0.2353125 5.37304688 -1.25 5.9375 C-2.71179688 6.75541016 -2.71179688 6.75541016 -4.203125 7.58984375 C-6.53610409 8.76610835 -8.45350762 9.52101691 -11 10 C-7.87058657 6.69176295 -4.92023166 4.2868018 -1 2 C-0.67 1.34 -0.34 0.68 0 0 Z " fill="#C5D788" transform="translate(47,41)"/>
<path d="M0 0 C3.87493616 -0.05834395 7.74975836 -0.09371201 11.625 -0.125 C13.26662109 -0.15013672 13.26662109 -0.15013672 14.94140625 -0.17578125 C24.98079979 -0.23662606 24.98079979 -0.23662606 30 2 C30 2.33 30 2.66 30 3 C23.25 3.125 23.25 3.125 21 2 C19.40737934 1.84824451 17.80935144 1.75099675 16.2109375 1.68359375 C15.26992187 1.64169922 14.32890625 1.59980469 13.359375 1.55664062 C12.37453125 1.51732422 11.3896875 1.47800781 10.375 1.4375 C9.38242188 1.39431641 8.38984375 1.35113281 7.3671875 1.30664062 C4.91160162 1.20038931 2.45591297 1.09835036 0 1 C0 0.67 0 0.34 0 0 Z " fill="#507547" transform="translate(115,68)"/>
<path d="M0 0 C0.33 0.99 0.66 1.98 1 3 C1.99 3.33 2.98 3.66 4 4 C4.94921875 6.72265625 4.94921875 6.72265625 5.6875 10.0625 C5.93886719 11.16722656 6.19023437 12.27195313 6.44921875 13.41015625 C6.63097656 14.26480469 6.81273437 15.11945313 7 16 C6.34 16 5.68 16 5 16 C4.73445313 15.38511719 4.46890625 14.77023438 4.1953125 14.13671875 C3.84210937 13.32847656 3.48890625 12.52023438 3.125 11.6875 C2.77695312 10.88699219 2.42890625 10.08648437 2.0703125 9.26171875 C0.97428106 6.8038166 0.97428106 6.8038166 -1 4 C-0.625 1.8125 -0.625 1.8125 0 0 Z " fill="#A1A498" transform="translate(17,182)"/>
<path d="M0 0 C1.72357119 2.58535679 2.44735018 4.03811614 3.1875 6.9375 C3.36667969 7.60652344 3.54585937 8.27554688 3.73046875 8.96484375 C4 11 4 11 3 15 C2.34 12.36 1.68 9.72 1 7 C0.67 9.97 0.34 12.94 0 16 C-0.33 16 -0.66 16 -1 16 C-1.02692484 13.70839681 -1.04636124 11.41670454 -1.0625 9.125 C-1.07410156 7.84882813 -1.08570313 6.57265625 -1.09765625 5.2578125 C-1 2 -1 2 0 0 Z " fill="#868F6E" transform="translate(6,134)"/>
<path d="M0 0 C0.99 0.495 0.99 0.495 2 1 C3.33475008 5.63236792 4.2845114 10.23007601 5 15 C4.01 15 3.02 15 2 15 C2 13.35 2 11.7 2 10 C1.34 10 0.68 10 0 10 C0 6.7 0 3.4 0 0 Z " fill="#687055" transform="translate(6,140)"/>
<path d="M0 0 C0 0.99 0 1.98 0 3 C-12.81925344 10.46365422 -12.81925344 10.46365422 -17.16796875 9.5390625 C-17.77253906 9.36117187 -18.37710938 9.18328125 -19 9 C-17.96359375 8.60167969 -16.9271875 8.20335937 -15.859375 7.79296875 C-14.4894564 7.25813752 -13.11967172 6.72296316 -11.75 6.1875 C-11.06808594 5.92646484 -10.38617188 5.66542969 -9.68359375 5.39648438 C-6.05595111 3.9700812 -2.99552463 2.57090129 0 0 Z " fill="#607141" transform="translate(158,177)"/>
<path d="M0 0 C2.86274764 2.86274764 2.9615008 6.10388111 3 10 C2.0625 12.5 2.0625 12.5 1 14 C0.34 13.67 -0.32 13.34 -1 13 C-1.6875 10.5 -1.6875 10.5 -2 8 C-1.67 7.67 -1.34 7.34 -1 7 C-0.63239269 4.67182036 -0.29758419 2.3381615 0 0 Z " fill="#A4B672" transform="translate(73,147)"/>
<path d="M0 0 C1.98 0 3.96 0 6 0 C5.67 0.66 5.34 1.32 5 2 C3.68 2 2.36 2 1 2 C0.773125 2.639375 0.54625 3.27875 0.3125 3.9375 C-1 6 -1 6 -3.625 6.75 C-4.800625 6.87375 -4.800625 6.87375 -6 7 C-6 6.34 -6 5.68 -6 5 C-4.34467377 3.98133771 -2.67739862 2.98189187 -1 2 C-0.67 1.34 -0.34 0.68 0 0 Z " fill="#728C56" transform="translate(86,124)"/>
<path d="M0 0 C0.33 0 0.66 0 1 0 C0.53829217 4.70941985 -0.01448906 8.24046771 -3 12 C-5.1875 12.8125 -5.1875 12.8125 -7 13 C-6.67 12.34 -6.34 11.68 -6 11 C-5.34 11 -4.68 11 -4 11 C-3.896875 10.484375 -3.79375 9.96875 -3.6875 9.4375 C-2.75736134 6.13973565 -1.38604488 3.13366668 0 0 Z " fill="#BFCE8E" transform="translate(23,66)"/>
<path d="M0 0 C0.33 0.66 0.66 1.32 1 2 C-5.625 5 -5.625 5 -9 5 C-9 5.99 -9 6.98 -9 8 C-9.66 8 -10.32 8 -11 8 C-10.81640625 6.140625 -10.81640625 6.140625 -10 4 C-7.71484375 2.734375 -7.71484375 2.734375 -4.9375 1.75 C-4.01839844 1.41484375 -3.09929688 1.0796875 -2.15234375 0.734375 C-1.44207031 0.49203125 -0.73179688 0.2496875 0 0 Z " fill="#B4C774" transform="translate(47,101)"/>
<path d="M0 0 C0 4.38968456 -2.12805101 5.76905739 -5 9 C-5.33 7.68 -5.66 6.36 -6 5 C-4.02 3.35 -2.04 1.7 0 0 Z " fill="#9EB165" transform="translate(214,147)"/>
<path d="M0 0 C0.33 0 0.66 0 1 0 C1.56638908 4.81430721 -0.17438373 7.20307814 -3 11 C-4 9 -4 9 -3.4765625 7.08984375 C-3.05503906 6.02443359 -3.05503906 6.02443359 -2.625 4.9375 C-2.34914062 4.22464844 -2.07328125 3.51179687 -1.7890625 2.77734375 C-1 1 -1 1 0 0 Z " fill="#A5B968" transform="translate(220,135)"/>
<path d="M0 0 C1.32 0.33 2.64 0.66 4 1 C4.33 2.98 4.66 4.96 5 7 C2 6 2 6 0 3 C0 2.01 0 1.02 0 0 Z " fill="#A4B472" transform="translate(78,163)"/>
<path d="M0 0 C2.64 0 5.28 0 8 0 C7.360625 0.309375 6.72125 0.61875 6.0625 0.9375 C4.06389179 1.8345163 4.06389179 1.8345163 3 3 C0.32941149 3.14115161 -2.32432238 3.04247107 -5 3 C-5 2.67 -5 2.34 -5 2 C-3.35 2 -1.7 2 0 2 C0 1.34 0 0.68 0 0 Z " fill="#76945A" transform="translate(97,121)"/>
<path d="M0 0 C0.33 0 0.66 0 1 0 C1.36923077 6.52307692 1.36923077 6.52307692 -0.5 8.9375 C-0.995 9.288125 -1.49 9.63875 -2 10 C-1.125 2.25 -1.125 2.25 0 0 Z " fill="#809451" transform="translate(176,151)"/>
<path d="M0 0 C3.75376152 1.25125384 4.24073289 2.5652404 6 6 C6 6.66 6 7.32 6 8 C4.35 7.67 2.7 7.34 1 7 C1.66 6.67 2.32 6.34 3 6 C2.01 4.02 1.02 2.04 0 0 Z " fill="#8FA65A" transform="translate(176,90)"/>
</svg>
