<?xml version="1.0" encoding="UTF-8"?>
<svg version="1.1" xmlns="http://www.w3.org/2000/svg" width="148" height="56">
<path d="M0 0 C1.65 0 3.3 0 5 0 C5 2.97 5 5.94 5 9 C6.65 9 8.3 9 10 9 C10 6.03 10 3.06 10 0 C11.32 0 12.64 0 14 0 C14 7.26 14 14.52 14 22 C12.68 22 11.36 22 10 22 C10 19.03 10 16.06 10 13 C8.35 13 6.7 13 5 13 C5 15.97 5 18.94 5 22 C3.35 22 1.7 22 0 22 C0 14.74 0 7.48 0 0 Z " fill="#000000" transform="translate(2,16)"/>
<path d="M0 0 C2.71705541 0.5463644 3.59796292 1.14286258 5.15625 3.43359375 C5.51953125 6.0625 5.51953125 6.0625 5.46875 8.99609375 C5.46488281 9.96675781 5.46101563 10.93742187 5.45703125 11.9375 C5.15625 14.43359375 5.15625 14.43359375 3.15625 16.43359375 C0.87890625 16.76953125 0.87890625 16.76953125 -1.78125 16.80859375 C-3.09416016 16.85113281 -3.09416016 16.85113281 -4.43359375 16.89453125 C-6.84375 16.43359375 -6.84375 16.43359375 -8.63671875 14.66015625 C-10.51157097 11.20169099 -10.38547559 8.26492838 -9.84375 4.43359375 C-8.01772195 -0.43581437 -4.62316545 -0.00770528 0 0 Z M-4.84375 4.43359375 C-4.84375 5.09359375 -4.84375 5.75359375 -4.84375 6.43359375 C-3.19375 6.43359375 -1.54375 6.43359375 0.15625 6.43359375 C0.15625 5.77359375 0.15625 5.11359375 0.15625 4.43359375 C-1.49375 4.43359375 -3.14375 4.43359375 -4.84375 4.43359375 Z M-4.84375 10.43359375 C-4.51375 11.09359375 -4.18375 11.75359375 -3.84375 12.43359375 C-2.19375 12.10359375 -0.54375 11.77359375 1.15625 11.43359375 C1.15625 11.10359375 1.15625 10.77359375 1.15625 10.43359375 C-0.82375 10.43359375 -2.80375 10.43359375 -4.84375 10.43359375 Z " fill="#000000" transform="translate(29.84375,21.56640625)"/>
<path d="M0 0 C0.89589844 -0.01417969 1.79179687 -0.02835938 2.71484375 -0.04296875 C5.0625 0.1875 5.0625 0.1875 7.0625 2.1875 C7.328125 4.9375 7.328125 4.9375 7.3125 8.1875 C7.31765625 9.26 7.3228125 10.3325 7.328125 11.4375 C7.0625 14.1875 7.0625 14.1875 5.0625 16.1875 C2.75 16.453125 2.75 16.453125 0.0625 16.4375 C-1.2678125 16.44523437 -1.2678125 16.44523437 -2.625 16.453125 C-4.9375 16.1875 -4.9375 16.1875 -6.9375 14.1875 C-7.92732526 9.15588826 -8.47211078 5.83428643 -5.9375 1.1875 C-4.27188601 -0.47811399 -2.27787295 0.01634055 0 0 Z M-1.9375 4.1875 C-2.2675 4.8475 -2.5975 5.5075 -2.9375 6.1875 C-0.9575 6.1875 1.0225 6.1875 3.0625 6.1875 C2.7325 5.5275 2.4025 4.8675 2.0625 4.1875 C0.7425 4.1875 -0.5775 4.1875 -1.9375 4.1875 Z M-2.9375 10.1875 C-2.6075 10.8475 -2.2775 11.5075 -1.9375 12.1875 C-0.2875 11.8575 1.3625 11.5275 3.0625 11.1875 C3.0625 10.8575 3.0625 10.5275 3.0625 10.1875 C1.0825 10.1875 -0.8975 10.1875 -2.9375 10.1875 Z " fill="#000000" transform="translate(137.9375,21.8125)"/>
<path d="M0 0 C4.29 0 8.58 0 13 0 C13 1.32 13 2.64 13 4 C10.03 4 7.06 4 4 4 C4 5.32 4 6.64 4 8 C6.31 8 8.62 8 11 8 C11 9.32 11 10.64 11 12 C8.69 12 6.38 12 4 12 C4 15.3 4 18.6 4 22 C2.68 22 1.36 22 0 22 C0 14.74 0 7.48 0 0 Z " fill="#000000" transform="translate(77,16)"/>
<path d="M0 0 C2.97 0 5.94 0 9 0 C9 5.94 9 11.88 9 18 C10.32 18 11.64 18 13 18 C13 19.32 13 20.64 13 22 C9.625 22.1875 9.625 22.1875 6 22 C3.54608431 18.31912647 3.77197241 15.55644412 3.875 11.3125 C3.88402344 10.61060547 3.89304688 9.90871094 3.90234375 9.18554688 C3.92586296 7.45688475 3.96173287 5.72839855 4 4 C2.68 4 1.36 4 0 4 C0 2.68 0 1.36 0 0 Z " fill="#000000" transform="translate(58,16)"/>
<path d="M0 0 C2.97 0 5.94 0 9 0 C9 5.94 9 11.88 9 18 C10.65 18 12.3 18 14 18 C14 19.32 14 20.64 14 22 C10.625 22.125 10.625 22.125 7 22 C5 20 5 20 4.8046875 16.3046875 C4.817991 14.82799892 4.84185165 13.35137642 4.875 11.875 C4.88402344 11.12089844 4.89304687 10.36679687 4.90234375 9.58984375 C4.9259313 7.72642746 4.96180281 5.86317407 5 4 C3.35 4 1.7 4 0 4 C0 2.68 0 1.36 0 0 Z " fill="#000000" transform="translate(39,16)"/>
<path d="M0 0 C2.64 0 5.28 0 8 0 C8 3.96 8 7.92 8 12 C9.32 12 10.64 12 12 12 C12 13.32 12 14.64 12 16 C7.71 16 3.42 16 -1 16 C-1 14.68 -1 13.36 -1 12 C0.32 12 1.64 12 3 12 C3 9.36 3 6.72 3 4 C2.01 4 1.02 4 0 4 C0 2.68 0 1.36 0 0 Z " fill="#000000" transform="translate(96,22)"/>
<path d="M0 0 C4.33333333 0 8.66666667 0 13 0 C13 1.32 13 2.64 13 4 C10.69 4.66 8.38 5.32 6 6 C5.67 9.3 5.34 12.6 5 16 C3.35 16 1.7 16 0 16 C0 10.72 0 5.44 0 0 Z " fill="#000000" transform="translate(114,22)"/>
<path d="M0 0 C1.2065625 0.0309375 1.2065625 0.0309375 2.4375 0.0625 C2.4375 1.7125 2.4375 3.3625 2.4375 5.0625 C0.7875 5.0625 -0.8625 5.0625 -2.5625 5.0625 C-3.125 3.125 -3.125 3.125 -3.5625 1.0625 C-2.5625 0.0625 -2.5625 0.0625 0 0 Z " fill="#000000" transform="translate(101.5625,15.9375)"/>
</svg>
